<svg width="0" height="0" style="position:absolute"><symbol fill="none" viewBox="0 0 36 36" id="iccc--display-icons--alert" xmlns="http://www.w3.org/2000/svg"><g fill-rule="evenodd" clip-rule="evenodd"><path d="M18.776 2.074l16.426 27.925a.9.9 0 01-.776 1.356H1.574a.9.9 0 01-.776-1.356L17.224 2.074a.9.9 0 011.552 0z" fill="#FFC21A"/><path d="M18 11.63c.621 0 1.125.504 1.125 1.125v7.5a1.125 1.125 0 01-2.25 0v-7.5c0-.621.504-1.125 1.125-1.125zm0 12.75c.621 0 1.125.504 1.125 1.125v.167a1.125 1.125 0 01-2.25 0v-.167c0-.621.504-1.125 1.125-1.125z" fill="#000"/></g></symbol><symbol fill="none" viewBox="0 0 36 36" id="iccc--display-icons--cancel" xmlns="http://www.w3.org/2000/svg"><g fill-rule="evenodd" clip-rule="evenodd"><path d="M18 34.13c8.906 0 16.125-7.22 16.125-16.125C34.125 9.099 26.905 1.88 18 1.88 9.094 1.88 1.875 9.1 1.875 18.005c0 8.906 7.22 16.125 16.125 16.125z" fill="#666"/><path d="M12.704 12.704c.44-.439 1.152-.439 1.591 0L18 16.41l3.704-3.704a1.125 1.125 0 011.591 1.59L19.591 18l3.704 3.704a1.125 1.125 0 01-1.59 1.591L18 19.591l-3.704 3.704a1.125 1.125 0 01-1.591-1.59L16.409 18l-3.704-3.704a1.125 1.125 0 010-1.591z" fill="#fff"/></g></symbol><symbol fill="none" viewBox="0 0 36 36" id="iccc--display-icons--complete" xmlns="http://www.w3.org/2000/svg"><g fill-rule="evenodd" clip-rule="evenodd"><path d="M17.625 33.75c8.906 0 16.125-7.22 16.125-16.125C33.75 8.719 26.53 1.5 17.625 1.5 8.719 1.5 1.5 8.72 1.5 17.625c0 8.906 7.22 16.125 16.125 16.125z" fill="#2BC275"/><path d="M23.782 12.483c.472.404.527 1.115.122 1.586l-7.136 8.326a1.125 1.125 0 01-1.625.087l-3.618-3.406a1.125 1.125 0 011.543-1.638l2.76 2.598 6.368-7.43a1.125 1.125 0 011.586-.123z" fill="#000"/></g></symbol><symbol fill="inherit" viewBox="0 0 36 36" id="iccc--display-icons--error" xmlns="http://www.w3.org/2000/svg"><g fill-rule="evenodd" clip-rule="evenodd"><path d="M18.742 2.242l15.015 15.015c.41.41.41 1.075 0 1.485L18.744 33.757a1.05 1.05 0 01-1.485 0L2.242 18.742a1.05 1.05 0 010-1.485L17.258 2.242a1.05 1.05 0 011.485 0z"/><path d="M18 10.875c.621 0 1.125.504 1.125 1.125v7.5a1.125 1.125 0 01-2.25 0V12c0-.621.504-1.125 1.125-1.125zm0 12.75c.621 0 1.125.504 1.125 1.125v.167a1.125 1.125 0 01-2.25 0v-.167c0-.621.504-1.125 1.125-1.125z" fill="currentColor"/></g></symbol><symbol fill="none" viewBox="0 0 36 36" id="iccc--display-icons--info" xmlns="http://www.w3.org/2000/svg"><g fill-rule="evenodd" clip-rule="evenodd"><path d="M18.005 34.13c8.906 0 16.125-7.22 16.125-16.125 0-8.906-7.22-16.125-16.125-16.125C9.099 1.88 1.88 9.1 1.88 18.005c0 8.906 7.22 16.125 16.125 16.125z" fill="#5F60FF"/><path d="M18 25.667a1.125 1.125 0 01-1.125-1.125v-7.5a1.125 1.125 0 012.25 0v7.5c0 .62-.504 1.125-1.125 1.125zm0-12.75a1.125 1.125 0 01-1.125-1.125v-.167a1.125 1.125 0 012.25 0v.167c0 .621-.504 1.125-1.125 1.125z" fill="#fff"/></g></symbol><symbol fill="inherit" viewBox="0 0 36 36" id="iccc--display-icons--lock" xmlns="http://www.w3.org/2000/svg"><g fill-rule="evenodd" clip-rule="evenodd"><path d="M22.724 2.906c1.359 1.217 2.221 3.017 2.221 5.305v4.434h3.202c.621 0 1.125.503 1.125 1.125v15.882c0 .621-.504 1.125-1.125 1.125H7.5a1.125 1.125 0 01-1.125-1.125V13.77c0-.622.504-1.125 1.125-1.125h3.375V8.21c0-2.288.862-4.088 2.221-5.305 1.34-1.2 3.094-1.776 4.814-1.776 1.72 0 3.475.576 4.814 1.776zm-9.599 9.739V8.21c0-1.683.615-2.861 1.473-3.63.877-.785 2.077-1.201 3.312-1.201 1.235 0 2.435.416 3.313 1.202.857.768 1.472 1.946 1.472 3.629v4.434h-9.57z" fill="currentColor"/><path d="M17.823 18.99c.622 0 1.125.504 1.125 1.125v3.177a1.125 1.125 0 11-2.25 0v-3.177c0-.621.504-1.125 1.125-1.125z"/></g></symbol><symbol fill="none" viewBox="0 0 36 36" id="iccc--display-icons--profile" xmlns="http://www.w3.org/2000/svg"><g fill-rule="evenodd" clip-rule="evenodd"><path d="M18.005 34.13c8.906 0 16.125-7.22 16.125-16.125 0-8.906-7.22-16.125-16.125-16.125C9.099 1.88 1.88 9.1 1.88 18.005c0 8.906 7.22 16.125 16.125 16.125z" fill="#5F60FF"/><path d="M10.836 28.85a.996.996 0 00.189-.586 6.975 6.975 0 1113.95 0c0 .219.07.42.19.585.631-.418 1.225-.89 1.773-1.409a8.976 8.976 0 00-17.876 0c.548.52 1.142.991 1.774 1.41zm4.806-16.137c0-1.39 1.085-2.463 2.358-2.463 1.273 0 2.358 1.073 2.358 2.463 0 1.39-1.085 2.463-2.358 2.463-1.274 0-2.358-1.074-2.358-2.463zM18 8.25c-2.436 0-4.358 2.027-4.358 4.463 0 2.435 1.922 4.463 4.358 4.463s4.358-2.028 4.358-4.463c0-2.436-1.922-4.463-4.358-4.463z" fill="#fff"/></g></symbol></svg>