<svg width="0" height="0" style="position:absolute"><symbol fill="none" viewBox="0 0 32 32" id="dhig--stepper--active-incomplete" xmlns="http://www.w3.org/2000/svg"><circle cx="16" cy="16" r="4" fill="currentColor"/></symbol><symbol fill="none" viewBox="0 0 32 32" id="dhig--stepper--complete" xmlns="http://www.w3.org/2000/svg"><path fill-rule="evenodd" clip-rule="evenodd" d="M21.654 11.352a1 1 0 01.108 1.41l-6.343 7.4a1 1 0 01-1.445.077l-3.215-3.027a1 1 0 111.37-1.456l2.454 2.309 5.66-6.605a1 1 0 011.41-.108z" fill="currentColor"/></symbol><symbol fill="none" viewBox="0 0 32 32" id="dhig--stepper--error" xmlns="http://www.w3.org/2000/svg"><path fill-rule="evenodd" clip-rule="evenodd" d="M16 9.667a1 1 0 011 1v6.666a1 1 0 01-2 0v-6.666a1 1 0 011-1zM16 21a1 1 0 011 1v.148a1 1 0 11-2 0V22a1 1 0 011-1z" fill="currentColor"/></symbol></svg>