<svg width="0" height="0" style="position:absolute"><symbol fill="none" viewBox="0 0 7 16" id="iccc--ui-controls--manual-width--caret-right" xmlns="http://www.w3.org/2000/svg"><path d="M1 3l5 5-5 5" stroke="currentColor" stroke-width="1.5" stroke-linecap="round" stroke-linejoin="round"/></symbol><symbol fill="none" viewBox="0 0 16 16" id="iccc--ui-controls--manual-width--checkmark" xmlns="http://www.w3.org/2000/svg"><path d="M4.75 7.657l2.682 2.593 4.318-5" stroke="currentColor" stroke-width="1.5" stroke-linecap="round" stroke-linejoin="round"/></symbol><symbol fill="inherit" viewBox="0 0 14 16" id="iccc--ui-controls--manual-width--error" xmlns="http://www.w3.org/2000/svg"><path d="M.707 7.293l5.586-5.586a1 1 0 011.414 0l5.586 5.586a1 1 0 010 1.414l-5.586 5.586a1 1 0 01-1.414 0L.707 8.707a1 1 0 010-1.414z"/><path fill-rule="evenodd" clip-rule="evenodd" d="M7.75 4.5a.75.75 0 00-1.5 0v4a.75.75 0 001.5 0v-4zm0 6.5a.75.75 0 00-1.5 0v.125a.75.75 0 001.5 0V11z" fill="currentColor"/></symbol><symbol fill="none" viewBox="0 0 9 16" id="iccc--ui-controls--manual-width--external" xmlns="http://www.w3.org/2000/svg"><path d="M1.786 5h6.143m0 0v6.143m0-6.143L1 11.929" stroke="currentColor" stroke-width="1.5" stroke-linecap="round" stroke-linejoin="round"/></symbol><symbol fill="none" viewBox="0 0 16 16" id="iccc--ui-controls--manual-width--indeterminate" xmlns="http://www.w3.org/2000/svg"><path d="M4 8h8" stroke="currentColor" stroke-width="1.5" stroke-linecap="round" stroke-linejoin="round"/></symbol><symbol fill="none" viewBox="0 0 14 16" id="iccc--ui-controls--manual-width--success" xmlns="http://www.w3.org/2000/svg"><path d="M7 1.75a6.25 6.25 0 100 12.5 6.25 6.25 0 000-12.5z" fill="#2BC275"/><path fill-rule="evenodd" clip-rule="evenodd" d="M9.955 5.58a.75.75 0 01.081 1.058l-3.171 3.7a.75.75 0 01-1.084.058L4.173 8.882A.75.75 0 015.202 7.79l1.035.975 2.66-3.103a.75.75 0 011.058-.082z" fill="#000"/></symbol></svg>