<svg width="0" height="0" style="position:absolute"><symbol fill="none" viewBox="0 0 9 16" id="iccc--ui-controls--caret-double-left-small" xmlns="http://www.w3.org/2000/svg"><path d="M4.501 4.5L1.001 8l3.5 3.5m3.5-7L4.501 8l3.5 3.5" stroke="currentColor" stroke-width="1.1" stroke-linecap="round" stroke-linejoin="round"/></symbol><symbol fill="none" viewBox="0 0 9 16" id="iccc--ui-controls--caret-double-right-small" xmlns="http://www.w3.org/2000/svg"><path d="M1.001 4.5l3.5 3.5-3.5 3.5m3.5-7l3.5 3.5-3.5 3.5" stroke="currentColor" stroke-width="1.1" stroke-linecap="round" stroke-linejoin="round"/></symbol><symbol fill="none" viewBox="0 0 12 16" id="iccc--ui-controls--caret-down" xmlns="http://www.w3.org/2000/svg"><path d="M11.001 5.5l-5 5-5-5" stroke="currentColor" stroke-width="1.5" stroke-linecap="round" stroke-linejoin="round"/></symbol><symbol fill="none" viewBox="0 0 9 16" id="iccc--ui-controls--caret-down-small" xmlns="http://www.w3.org/2000/svg"><path d="M8.001 6.25l-3.5 3.5-3.5-3.5" stroke="currentColor" stroke-width="1.1" stroke-linecap="round" stroke-linejoin="round"/></symbol><symbol fill="none" viewBox="0 0 7 16" id="iccc--ui-controls--caret-left" xmlns="http://www.w3.org/2000/svg"><path d="M6.001 3l-5 5 5 5" stroke="currentColor" stroke-width="1.5" stroke-linecap="round" stroke-linejoin="round"/></symbol><symbol fill="none" viewBox="0 0 6 16" id="iccc--ui-controls--caret-left-small" xmlns="http://www.w3.org/2000/svg"><path d="M4.501 4.5L1.001 8l3.5 3.5" stroke="currentColor" stroke-width="1.1" stroke-linecap="round" stroke-linejoin="round"/></symbol><symbol fill="none" viewBox="0 0 7 16" id="iccc--ui-controls--caret-right" xmlns="http://www.w3.org/2000/svg"><path d="M1.001 3l5 5-5 5" stroke="currentColor" stroke-width="1.5" stroke-linecap="round" stroke-linejoin="round"/></symbol><symbol fill="none" viewBox="0 0 6 16" id="iccc--ui-controls--caret-right-small" xmlns="http://www.w3.org/2000/svg"><path d="M1.001 4.5l3.5 3.5-3.5 3.5" stroke="currentColor" stroke-width="1.1" stroke-linecap="round" stroke-linejoin="round"/></symbol><symbol fill="none" viewBox="0 0 12 16" id="iccc--ui-controls--caret-up" xmlns="http://www.w3.org/2000/svg"><path d="M11 10.5l-5-5-5 5" stroke="currentColor" stroke-width="1.5" stroke-linecap="round" stroke-linejoin="round"/></symbol><symbol fill="none" viewBox="0 0 9 16" id="iccc--ui-controls--caret-up-small" xmlns="http://www.w3.org/2000/svg"><path d="M1.001 9.75l3.5-3.5 3.5 3.5" stroke="currentColor" stroke-width="1.1" stroke-linecap="round" stroke-linejoin="round"/></symbol><symbol fill="none" viewBox="0 0 11 16" id="iccc--ui-controls--checkmark" xmlns="http://www.w3.org/2000/svg"><path d="M1 7.408L4.182 11 10 4.5" stroke="currentColor" stroke-width="1.5" stroke-linecap="round" stroke-linejoin="round"/></symbol><symbol fill="inherit" viewBox="0 0 16 16" id="iccc--ui-controls--error" xmlns="http://www.w3.org/2000/svg"><path d="M1.707 7.293l5.586-5.586a1 1 0 011.414 0l5.586 5.586a1 1 0 010 1.414l-5.586 5.586a1 1 0 01-1.414 0L1.707 8.707a1 1 0 010-1.414z"/><path fill-rule="evenodd" clip-rule="evenodd" d="M8.75 4.5a.75.75 0 00-1.5 0v4a.75.75 0 001.5 0v-4zm0 6.5a.75.75 0 00-1.5 0v.125a.75.75 0 001.5 0V11z" fill="currentColor"/></symbol><symbol fill="none" viewBox="0 0 9 16" id="iccc--ui-controls--external" xmlns="http://www.w3.org/2000/svg"><path d="M1.787 4.536H7.93m0 0v6.143m0-6.143L1 11.464" stroke="currentColor" stroke-width="1.5" stroke-linecap="round" stroke-linejoin="round"/></symbol><symbol fill="none" viewBox="0 0 10 16" id="iccc--ui-controls--indeterminate" xmlns="http://www.w3.org/2000/svg"><path d="M1 8h8" stroke="currentColor" stroke-width="1.5" stroke-linecap="round" stroke-linejoin="round"/></symbol><symbol fill="none" viewBox="0 0 15 16" id="iccc--ui-controls--success" xmlns="http://www.w3.org/2000/svg"><path d="M7.25 1.75a6.25 6.25 0 100 12.5 6.25 6.25 0 000-12.5z" fill="#2BC275"/><path fill-rule="evenodd" clip-rule="evenodd" d="M10.205 5.58a.75.75 0 01.081 1.058l-3.171 3.7a.75.75 0 01-1.084.058L4.423 8.882A.75.75 0 015.452 7.79l1.035.975 2.66-3.103a.75.75 0 011.058-.082z" fill="#000"/></symbol></svg>