<svg width="36" height="36" viewBox="0 0 36 36" fill="none" xmlns="http://www.w3.org/2000/svg">
<g id="alert">
<path id="fill-background" fill-rule="evenodd" clip-rule="evenodd" d="M18.7757 2.07368L35.2021 29.9986C35.5551 30.5986 35.1225 31.3549 34.4264 31.3549H1.57355C0.877472 31.3549 0.444882 30.5986 0.797805 29.9986L17.2242 2.07368C17.5722 1.4821 18.4277 1.4821 18.7757 2.07368Z" fill="#FFC21A"/>
<path id="fill-foreground" fill-rule="evenodd" clip-rule="evenodd" d="M18 11.63C18.6213 11.63 19.125 12.1337 19.125 12.755V20.255C19.125 20.8763 18.6213 21.38 18 21.38C17.3787 21.38 16.875 20.8763 16.875 20.255V12.755C16.875 12.1337 17.3787 11.63 18 11.63ZM18 24.38C18.6213 24.38 19.125 24.8836 19.125 25.505V25.6716C19.125 26.2929 18.6213 26.7966 18 26.7966C17.3787 26.7966 16.875 26.2929 16.875 25.6716V25.505C16.875 24.8836 17.3787 24.38 18 24.38Z" fill="black"/>
</g>
</svg>
