<svg width="16" height="16" viewBox="0 0 16 16" fill="inherit" xmlns="http://www.w3.org/2000/svg">
<g id="error">
<g id="group">
<path id="fill-background" d="M1.70711 7.29289L7.29289 1.70711C7.68342 1.31658 8.31658 1.31658 8.70711 1.70711L14.2929 7.29289C14.6834 7.68342 14.6834 8.31658 14.2929 8.70711L8.70711 14.2929C8.31658 14.6834 7.68342 14.6834 7.29289 14.2929L1.70711 8.70711C1.31658 8.31658 1.31658 7.68342 1.70711 7.29289Z" fill="inherit"/>
<path id="fill-foreground" fill-rule="evenodd" clip-rule="evenodd" d="M8.75 4.5C8.75 4.08579 8.41421 3.75 8 3.75C7.58579 3.75 7.25 4.08579 7.25 4.5V8.5C7.25 8.91421 7.58579 9.25 8 9.25C8.41421 9.25 8.75 8.91421 8.75 8.5V4.5ZM8.75 11C8.75 10.5858 8.41421 10.25 8 10.25C7.58579 10.25 7.25 10.5858 7.25 11V11.125C7.25 11.5392 7.58579 11.875 8 11.875C8.41421 11.875 8.75 11.5392 8.75 11.125L8.75 11Z" fill="currentColor"/>
</g>
</g>
</svg>
