<svg width="24" height="24" viewBox="0 0 24 24" fill="none" xmlns="http://www.w3.org/2000/svg">
<g id="utility/alert-solid">
<path id="fill" fill-rule="evenodd" clip-rule="evenodd" d="M12.5171 1.37916L23.4681 19.9958C23.7034 20.3958 23.415 20.9 22.9509 20.9H1.04903C0.584981 20.9 0.296588 20.3958 0.53187 19.9958L11.4828 1.37916C11.7148 0.984778 12.2852 0.984779 12.5171 1.37916ZM12.75 8.5C12.75 8.08579 12.4142 7.75 12 7.75C11.5858 7.75 11.25 8.08579 11.25 8.5V13.3C11.25 13.7142 11.5858 14.05 12 14.05C12.4142 14.05 12.75 13.7142 12.75 13.3V8.5ZM12.75 16.88C12.75 16.4658 12.4142 16.13 12 16.13C11.5858 16.13 11.25 16.4658 11.25 16.88V17C11.25 17.4142 11.5858 17.75 12 17.75C12.4142 17.75 12.75 17.4142 12.75 17V16.88Z" fill="currentColor"/>
</g>
</svg>
