<svg width="24" height="24" viewBox="0 0 24 24" fill="none" xmlns="http://www.w3.org/2000/svg">
<path d="M8.53033 7.46967C8.23744 7.17678 7.76256 7.17678 7.46967 7.46967C7.17678 7.76256 7.17678 8.23744 7.46967 8.53033L8.53033 7.46967ZM15.4697 16.5303C15.7626 16.8232 16.2374 16.8232 16.5303 16.5303C16.8232 16.2374 16.8232 15.7626 16.5303 15.4697L15.4697 16.5303ZM16.5303 8.53033C16.8232 8.23744 16.8232 7.76256 16.5303 7.46967C16.2374 7.17678 15.7626 7.17678 15.4697 7.46967L16.5303 8.53033ZM7.46967 15.4697C7.17678 15.7626 7.17678 16.2374 7.46967 16.5303C7.76256 16.8232 8.23744 16.8232 8.53033 16.5303L7.46967 15.4697ZM12 21.25C6.89137 21.25 2.75 17.1086 2.75 12H1.25C1.25 17.9371 6.06294 22.75 12 22.75V21.25ZM2.75 12C2.75 6.89137 6.89137 2.75 12 2.75V1.25C6.06294 1.25 1.25 6.06294 1.25 12H2.75ZM12 2.75C17.1086 2.75 21.25 6.89137 21.25 12H22.75C22.75 6.06294 17.9371 1.25 12 1.25V2.75ZM21.25 12C21.25 17.1086 17.1086 21.25 12 21.25V22.75C17.9371 22.75 22.75 17.9371 22.75 12H21.25ZM7.46967 8.53033L15.4697 16.5303L16.5303 15.4697L8.53033 7.46967L7.46967 8.53033ZM15.4697 7.46967L7.46967 15.4697L8.53033 16.5303L16.5303 8.53033L15.4697 7.46967Z" fill="currentColor"/>
</svg>
