<svg width="24" height="24" viewBox="0 0 24 24" fill="none"
    xmlns="http://www.w3.org/2000/svg">
    <g id="actions/cart-full">
        <path id="stroke" d="M1 3H1.88926C2.82957 3 3.64289 3.65502 3.84331 4.57373L6.0215 14.5586H18.5L20 5.81311H4.11368M10 18.869C10 19.9736 9.10457 20.869 8 20.869C6.89543 20.869 6 19.9736 6 18.869C6 17.7644 6.89543 16.869 8 16.869C9.10457 16.869 10 17.7644 10 18.869ZM19 18.873C19 19.9776 18.1046 20.873 17 20.873C15.8954 20.873 15 19.9776 15 18.873C15 17.7684 15.8954 16.873 17 16.873C18.1046 16.873 19 17.7684 19 18.873Z" stroke="currentColor" stroke-width="1.5" stroke-linecap="round" stroke-linejoin="round"/>
    </g>
</svg>
