<svg width="24" height="24" viewBox="0 0 24 24" fill="none"
    xmlns="http://www.w3.org/2000/svg">
    <path fill-rule="evenodd" clip-rule="evenodd" d="M12 22.75C17.9371 22.75 22.75 17.9371 22.75 12C22.75 6.06294 17.9371 1.25 12 1.25C6.06294 1.25 1.25 6.06294 1.25 12C1.25 17.9371 6.06294 22.75 12 22.75ZM12.5911 7.47C12.2984 7.17692 11.8235 7.17663 11.5304 7.46934C11.2373 7.76206 11.237 8.23693 11.5298 8.53L14.2464 11.25H7C6.58579 11.25 6.25 11.5858 6.25 12C6.25 12.4142 6.58579 12.75 7 12.75H14.2464L11.5298 15.47C11.237 15.7631 11.2373 16.2379 11.5304 16.5307C11.8235 16.8234 12.2984 16.8231 12.5911 16.53L16.5861 12.53C16.8786 12.2372 16.8786 11.7628 16.5861 11.47L12.5911 7.47Z" fill="currentColor"/>
</svg>
