<svg width="24" height="24" viewBox="0 0 24 24" fill="none" xmlns="http://www.w3.org/2000/svg">
    <path d="M19.2389 7.25513L13.1389 10.9551M10.8689 10.9551L3.62885 6.56512M3.62885 6.56512L12.0089 1.49512L19.2389 5.87512M3.62885 6.56512L3.63885 11.8952V16.2952L7.80885 18.8252L10.8689 20.6752M11.9988 12.7751V16.5051V20.2351M19.2389 16.9851L13.1389 20.6751M20.3789 15.2151V7.70508M7.77888 9.0815V18.807M3.63807 11.4805L11.9988 16.5352M13.1388 10.5051H10.8688V12.7751H13.1388V10.5051ZM21.5088 5.43506H19.2388V7.70508H21.5088V5.43506ZM13.1388 20.2351H10.8688V22.505H13.1388V20.2351ZM21.5088 15.2151H19.2388V17.4851H21.5088V15.2151Z" stroke="currentColor" stroke-width="1.5" stroke-linecap="round" stroke-linejoin="round"/>
</svg>
