<svg width="24" height="24" viewBox="0 0 24 24" fill="none"
    xmlns="http://www.w3.org/2000/svg">
    <g id="social/facebook">
        <path id="fill" fill-rule="evenodd" clip-rule="evenodd" d="M20.1889 2H3.81111C2.81086 2 2 2.81086 2 3.81111V20.1889C2 21.1891 2.81086 22 3.81111 22H13V14H10V11H13V8.77778C13 6.2 14.5222 4.78889 16.7556 4.78889C17.4979 4.79053 18.2397 4.83133 18.9778 4.91111V8H17.4556C16.2444 8 16 8.6 16 9.46667V11H18.9667L18.5778 14H16V22H20.1889C21.1891 22 22 21.1891 22 20.1889V3.81111C22 2.81086 21.1891 2 20.1889 2Z" fill="currentColor"/>
    </g>
</svg>
