<svg width="24" height="24" viewBox="0 0 24 24" fill="none"
    xmlns="http://www.w3.org/2000/svg">
    <g id="miscellaneous/featured">
        <path id="stroke" d="M9.89474 16.4451C10.5394 16.7195 11.2515 16.8718 12 16.8718C12.7485 16.8718 13.4606 16.7195 14.1053 16.4451M9.89474 16.4451C9.30397 16.1936 8.76974 15.8395 8.31579 15.4059C7.34139 14.4751 6.73684 13.1782 6.73684 11.7436C6.73684 8.91136 9.09324 6.5 12 6.5C14.9068 6.5 17.2632 8.91136 17.2632 11.7436C17.2632 13.1782 16.6586 14.4751 15.6842 15.4059C15.2303 15.8395 14.696 16.1936 14.1053 16.4451M9.89474 16.4451V22H14.1053V16.4451M12 4.05128C12 4.05128 12 2.80108 12 2M19.8947 11.7436H22M2 11.7436H4.10526M4.63158 5.07692L6.21053 6.61538M19.3684 5.07692L17.7895 6.61538" stroke="currentColor" stroke-width="1.5" stroke-linecap="round" stroke-linejoin="round"/>
    </g>
</svg>
