<svg width="24" height="24" viewBox="0 0 24 24" fill="none"
    xmlns="http://www.w3.org/2000/svg">
    <g id="miscellaneous/file-zip">
        <path id="stroke" d="M16 1L21 6M16 1V6H21M16 1H10.5M21 6V23H10.5M10.5 1H3V23H10.5M10.5 1V5.16993M10.5 5.16993H8.4V9.5H10.5M10.5 5.16993H12.6V9.5H10.5M10.5 9.5V13.2941M10.5 23V19.7647M10.5 13.2941H8.5M10.5 13.2941V16.5294M10.5 13.2941H12.7M10.5 16.5294V19.7647M10.5 16.5294H12.7M10.5 16.5294H8.5M10.5 19.7647H12.7M10.5 19.7647H8.5" stroke="currentColor" stroke-width="1.5" stroke-linecap="round" stroke-linejoin="round"/>
    </g>
</svg>
