<svg width="24" height="24" viewBox="0 0 24 24" fill="none"
    xmlns="http://www.w3.org/2000/svg">
    <g id="miscellaneous/file-video">
        <path id="stroke" d="M6 18H2V21H6M6 18V21M6 18H10M6 21H10M10 21V18M10 21H14M10 18H14M14 18V21M14 18H18M14 21H18M18 21H22V18H18M18 21V18M6 2H2V5H4M6 2V5M6 2H10M6 5H10M6 5H4M10 5V2M10 5H12M10 2H14M14 2V5M14 2H18M14 5H18M14 5H12M18 5V2M18 5H20M18 2H22V5H20M4 5V18M20 5V18M12 5V18" stroke="currentColor" stroke-width="1.5" stroke-linejoin="round"/>
    </g>
</svg>
