<svg width="24" height="24" viewBox="0 0 24 24" fill="none"
    xmlns="http://www.w3.org/2000/svg">
    <g id="miscellaneous/file-presentation">
        <path id="stroke" d="M21.2632 2V16.2857H12M21.2632 2H23M21.2632 2H2.73684M2.73684 2V16.2857H12M2.73684 2H1M12 16.2857V22M12 16.2857L17.7895 22M12 16.2857L6.21053 22M15 11H18M15 7H18M12 9C12 10.6569 10.6569 12 9 12C7.34315 12 6 10.6569 6 9C6 7.34315 7.34315 6 9 6C10.6569 6 12 7.34315 12 9Z" stroke="currentColor" stroke-width="1.5" stroke-linecap="round" stroke-linejoin="round"/>
    </g>
</svg>
