<svg width="24" height="24" viewBox="0 0 24 24" fill="none"
    xmlns="http://www.w3.org/2000/svg">
    <g id="miscellaneous/file-spreadsheet">
        <path id="fill" d="M7 1H3V23H7V1Z" fill="currentColor"/>
        <path id="stroke" d="M21 5.27778V1H13.6875M21 5.27778H3M21 5.27778V9.55556M3 5.27778V1H4.6875H6.375M3 5.27778V9.55556M3 9.55556H21M3 9.55556V13.8333M21 9.55556V13.8333M3 13.8333H21M3 13.8333V18.4167M21 13.8333V18.4167M3 18.4167V23H4.6875H6.375M3 18.4167H21M21 18.4167V23H13.6875M13.6875 1V23M13.6875 1H6.375M13.6875 23H6.375M6.375 23V1" stroke="currentColor" stroke-width="1.5" stroke-linejoin="round"/>
    </g>
</svg>
