<svg width="24" height="24" viewBox="0 0 24 24" fill="none"
    xmlns="http://www.w3.org/2000/svg">
    <g id="social/instagram">
        <g id="stroke">
            <path d="M2 8C2 4.68629 4.68629 2 8 2H16C19.3137 2 22 4.68629 22 8V16C22 19.3137 19.3137 22 16 22H8C4.68629 22 2 19.3137 2 16V8Z" stroke="currentColor" stroke-width="1.5" stroke-linecap="round"/>
            <path d="M17 12C17 14.7614 14.7614 17 12 17C9.23858 17 7 14.7614 7 12C7 9.23858 9.23858 7 12 7C14.7614 7 17 9.23858 17 12Z" stroke="currentColor" stroke-width="1.5" stroke-linecap="round"/>
            <path d="M17.5 6C18 6 18 6.5 18 6.5C18 6.5 18 7 17.5 7C17 7 17 6.5 17 6.5C17 6.5 17 6 17.5 6Z" stroke="currentColor" stroke-width="1.5" stroke-linecap="round"/>
        </g>
    </g>
</svg>
