<svg width="24" height="24" viewBox="0 0 24 24" fill="none"
    xmlns="http://www.w3.org/2000/svg">
    <g id="miscellaneous/key">
        <path id="stroke" d="M9 11.6076C8.36518 10.554 8 9.31967 8 8C8 4.13401 11.134 1 15 1C18.866 1 22 4.13401 22 8C22 11.866 18.866 15 15 15C13.8748 15 13 15 12 14.5L10 16.5V19H7V22L6 23H2V20.0667L9 11.5M18 7C18 8.10457 17.1046 9 16 9C14.8954 9 14 8.10457 14 7C14 5.89543 14.8954 5 16 5C17.1046 5 18 5.89543 18 7Z" stroke="currentColor" stroke-width="1.5" stroke-linecap="round" stroke-linejoin="round"/>
    </g>
</svg>
