<svg width="24" height="24" viewBox="0 0 24 24" fill="none"
    xmlns="http://www.w3.org/2000/svg">
    <g id="utility/location">
        <g id="stroke">
            <path d="M19 9.16667C19 12.608 14.5851 18.9927 12.7676 21.4752C12.3824 22.0014 11.6176 22.0014 11.2324 21.4752C9.41489 18.9927 5 12.608 5 9.16667C5 5.48477 8.13401 2.5 12 2.5C15.866 2.5 19 5.48477 19 9.16667Z" stroke="currentColor" stroke-width="1.5" stroke-linecap="round" stroke-linejoin="round"/>
            <path d="M15 9.5C15 11.1569 13.6569 12.5 12 12.5C10.3431 12.5 9 11.1569 9 9.5C9 7.84315 10.3431 6.5 12 6.5C13.6569 6.5 15 7.84315 15 9.5Z" stroke="currentColor" stroke-width="1.5" stroke-linecap="round" stroke-linejoin="round"/>
        </g>
    </g>
</svg>
