<svg width="24" height="24" viewBox="0 0 24 24" fill="none"
    xmlns="http://www.w3.org/2000/svg">
    <g id="av/mic-off">
        <path id="stroke" d="M12 20C8.13401 20 5 16.866 5 13M12 20C14.1525 20 16.078 19.0285 17.3621 17.5M12 20V23M18.7522 14.8528C18.9137 14.2627 19 13.6414 19 13M8 8V13C8 15.2091 9.79086 17 12 17C13.3117 17 14.4759 16.3687 15.2053 15.3933M16 12V5C16 2.79086 14.2091 1 12 1C10.1372 1 8.57182 2.06653 8.12677 3.89983M19 23H5M2 2L22 22" stroke="currentColor" stroke-width="1.5" stroke-linecap="round"/>
    </g>
</svg>
