<svg width="24" height="24" viewBox="0 0 24 24" fill="none"
    xmlns="http://www.w3.org/2000/svg">
    <g id="actions/profile">
        <path id="stroke" d="M6.5 20.1132C6.5 17.0756 8.96243 14.6132 12 14.6132C15.0376 14.6132 17.5 17.0756 17.5 20.1132M14.3157 9.38816C14.3157 10.7071 13.2789 11.7763 11.9999 11.7763C10.721 11.7763 9.68414 10.7071 9.68414 9.38816C9.68414 8.06921 10.721 7 11.9999 7C13.2789 7 14.3157 8.06921 14.3157 9.38816ZM22 12C22 17.5228 17.5228 22 12 22C6.47715 22 2 17.5228 2 12C2 6.47715 6.47715 2 12 2C17.5228 2 22 6.47715 22 12Z" stroke="currentColor" stroke-width="1.5" stroke-linecap="round" stroke-linejoin="round"/>
    </g>
</svg>
