<svg width="24" height="24" viewBox="0 0 24 24" fill="none"
    xmlns="http://www.w3.org/2000/svg">
    <g id="miscellaneous/quantities">
        <g id="stroke">
            <path d="M11.5 16C12.8807 16 14 17.1193 14 18.5C14 19.8807 12.8807 21 11.5 21C10.1193 21 9 19.8807 9 18.5C9 17.1193 10.1193 16 11.5 16Z" stroke="currentColor" stroke-width="1.5"/>
            <path d="M3.5 16C4.88071 16 6 17.1193 6 18.5C6 19.8807 4.88071 21 3.5 21C2.11929 21 1 19.8807 1 18.5C1 17.1193 2.11929 16 3.5 16Z" stroke="currentColor" stroke-width="1.5"/>
            <path d="M19.5 16C20.8807 16 22 17.1193 22 18.5C22 19.8807 20.8807 21 19.5 21C18.1193 21 17 19.8807 17 18.5C17 17.1193 18.1193 16 19.5 16Z" stroke="currentColor" stroke-width="1.5"/>
            <path d="M7.5 9C8.88071 9 10 10.1193 10 11.5C10 12.8807 8.88071 14 7.5 14C6.11929 14 5 12.8807 5 11.5C5 10.1193 6.11929 9 7.5 9Z" stroke="currentColor" stroke-width="1.5"/>
            <path d="M15.5 9C16.8807 9 18 10.1193 18 11.5C18 12.8807 16.8807 14 15.5 14C14.1193 14 13 12.8807 13 11.5C13 10.1193 14.1193 9 15.5 9Z" stroke="currentColor" stroke-width="1.5"/>
            <path d="M11.5 2C12.8807 2 14 3.11929 14 4.5C14 5.88071 12.8807 7 11.5 7C10.1193 7 9 5.88071 9 4.5C9 3.11929 10.1193 2 11.5 2Z" stroke="currentColor" stroke-width="1.5"/>
        </g>
    </g>
</svg>
