<svg width="24" height="24" viewBox="0 0 24 24" fill="none"
    xmlns="http://www.w3.org/2000/svg">
    <g id="actions/settings">
        <g id="stroke">
            <path fill-rule="evenodd" clip-rule="evenodd" d="M20.5 17.7333L17.5 20.5L15.4333 18.1444C14.9526 18.4038 14.4462 18.6124 13.9222 18.7667L14 22H10.0778V18.7667C9.55381 18.6124 9.04737 18.4038 8.56667 18.1444L6.26667 20.5L3.58889 17.7333L5.85556 15.4222C5.59431 14.9463 5.38567 14.4433 5.23333 13.9222H2V10.0778H5.23333C5.38567 9.55667 5.59431 9.05371 5.85556 8.57778L3.58889 6.26667L6.26667 3.65633L8.56667 5.85556C9.04737 5.59618 9.55381 5.38764 10.0778 5.23333L10.1818 2H13.8182L13.9222 5.23333C14.4462 5.38764 14.9526 5.59618 15.4333 5.85556L17.7841 3.65633L20.5 6.5L18.1444 8.57778C18.4057 9.05371 18.6143 9.55667 18.7667 10.0778H22V13.9222L18.7667 13.7057V13.9222C18.6143 14.4433 18.4057 14.9463 18.1444 15.4222L20.5 17.7333Z" stroke="currentColor" stroke-width="1.5" stroke-linecap="round" stroke-linejoin="round"/>
            <path d="M15 12C15 13.6569 13.6569 15 12 15C10.3431 15 9 13.6569 9 12C9 10.3431 10.3431 9 12 9C13.6569 9 15 10.3431 15 12Z" stroke="currentColor" stroke-width="1.5" stroke-linecap="round" stroke-linejoin="round"/>
        </g>
    </g>
</svg>
