<svg width="24" height="24" viewBox="0 0 24 24" fill="none"
    xmlns="http://www.w3.org/2000/svg">
    <g id="utility/six">
        <circle id="stroke" cx="12" cy="12" r="10" stroke="currentColor" stroke-width="1.5"/>
        <path id="fill" d="M12.3168 10.7438C11.4132 10.7438 10.8182 11.0634 10.3884 11.5702C10.5537 9.93939 11.6997 9.17906 13.6391 9.09091V8C10.686 8.08815 9 9.53168 9 12.4298V12.9697C9 14.7879 10.1129 16 11.8209 16C13.6171 16 14.5317 14.8099 14.5317 13.4766V13.0028C14.5317 11.7355 13.7493 10.7438 12.3168 10.7438ZM13.1653 13.4325C13.1653 14.3471 12.7355 14.9201 11.8209 14.9201C10.9504 14.9201 10.3664 14.3251 10.3664 13.0248V12.6722C10.8182 12.0992 11.303 11.7906 12.0303 11.7906C12.8567 11.7906 13.1653 12.2865 13.1653 13.0358V13.4325Z" fill="currentColor"/>
    </g>
</svg>
