<svg width="24" height="24" viewBox="0 0 24 24" fill="none"
    xmlns="http://www.w3.org/2000/svg">
    <g id="miscellaneous/subscriptions">
        <path id="stroke" d="M17 4.75H7.5M20 8.6V1.25H4V22.25H10M10 12.25H7.5M9 15.75H7.5M15 8.6H7.5M19 14.0494C18.3875 13.7925 17.7111 13.65 17 13.65C14.2386 13.65 12 15.799 12 18.45C12 21.101 14.2386 23.25 17 23.25C19.7614 23.25 22 21.101 22 18.45C22 17.8145 21.8713 17.2078 21.6377 16.6526M19 14.0494L16.7821 11.25M19 14.0494L16.7821 16.6526" stroke="currentColor" stroke-width="1.5" stroke-linecap="round" stroke-linejoin="round"/>
    </g>
</svg>
