<svg width="24" height="24" viewBox="0 0 24 24" fill="none"
    xmlns="http://www.w3.org/2000/svg">
    <g id="utility/ten">
        <circle id="stroke" cx="12" cy="12" r="10" stroke="currentColor" stroke-width="1.5"/>
        <g id="fill">
            <path d="M9.18457 14.8099V8.14325H8.15978L6 9.39945L6.50689 10.303L7.84022 9.64187V14.8099H6.26446V15.8567H7.84022H10.5399V14.8099H9.18457Z" fill="currentColor"/>
            <path d="M14.4029 16C16.155 16 17.1687 14.9642 17.1687 13.3223V10.7218C17.1687 9.02479 16.155 8 14.4029 8C12.5847 8 11.5489 9.02479 11.5489 10.7218V13.3223C11.5489 14.9642 12.5847 16 14.4029 16ZM14.4029 14.9201C13.4883 14.9201 12.9373 14.3912 12.9373 13.3333V10.6997C12.9373 9.58678 13.4883 9.04683 14.4029 9.04683C15.2293 9.04683 15.7913 9.58678 15.7913 10.6997V13.3333C15.7913 14.3912 15.2293 14.9201 14.4029 14.9201Z" fill="currentColor"/>
        </g>
    </g>
</svg>
