<svg width="24" height="24" viewBox="0 0 24 24" fill="none"
    xmlns="http://www.w3.org/2000/svg">
    <path d="M8.09457 15.1542C8.09457 15.1542 9.62295 17.1556 10.4599 17.7379C11.3454 18.3686 11.5637 20.3094 11.3333 21.2556C11.0179 22.5413 12.5948 23.9848 13.9655 22.0804C15.3361 20.176 13.9655 16.44 13.9655 16.44L17.1071 16.0639C17.1071 16.0639 20.7946 15.4332 20.9159 13.8806C21.013 12.6676 19.7636 12.34 19.7636 12.34C19.7636 12.34 20.9523 12.3037 20.9523 10.5933C20.9523 9.11349 19.3633 9.04071 19.3633 9.04071C19.3633 9.04071 20.1517 8.53125 19.9698 7.35465C19.7878 6.14165 18.4899 5.91118 18.4899 5.91118C18.4899 5.91118 19.2784 5.68072 18.8417 4.28577C18.5263 3.25473 16.5734 3 15.0329 3C13.3104 3 10.9694 3.47307 8.79811 4.56476C8.79811 4.56476 7.13631 5.35321 3 5.20765V13.9655C3.01213 13.9655 7.63364 13.5652 8.09457 15.1542Z" stroke="currentColor" stroke-width="1.5" stroke-miterlimit="10" stroke-linejoin="round"/>
</svg>
