<svg width="24" height="24" viewBox="0 0 24 24" fill="none"
    xmlns="http://www.w3.org/2000/svg">
    <g id="actions/view-file">
        <path id="stroke" d="M16 1V6H21M16 1H3V23H21V20.5M16 1L21 6M21 6V10.5M17.5 15.5C17.5 16.8807 16.3807 18 15 18C13.6193 18 12.5 16.8807 12.5 15.5C12.5 14.1193 13.6193 13 15 13C16.3807 13 17.5 14.1193 17.5 15.5ZM21.5312 15.5001C21.5312 15.5001 19.4687 20.072 15 20.072C10.5313 20.072 8.46875 15.5001 8.46875 15.5001C8.46875 15.5001 10.5313 10.9282 15 10.9282C19.4687 10.9282 21.5312 15.5001 21.5312 15.5001Z" stroke="currentColor" stroke-width="1.5" stroke-linecap="round" stroke-linejoin="round"/>
    </g>
</svg>
