<svg width="24" height="24" viewBox="0 0 24 24" fill="none"
    xmlns="http://www.w3.org/2000/svg">
    <g id="miscellaneous/windows">
        <g id="fill">
            <path d="M16.2872 2.82L21.7999 2.02L22 2V11.32H11.3347V3.73C11.3347 3.58 11.3847 3.51 11.5348 3.51C12.6202 3.3599 13.7009 3.20049 14.7801 3.04129C15.2826 2.96717 15.785 2.89307 16.2872 2.82Z" fill="currentColor"/>
            <path d="M21.9998 22.0002L11.3445 20.5002V12.6602H21.9998V22.0002Z" fill="currentColor"/>
            <path d="M2 12.6699V19.0999C2 19.1999 2 19.2399 2.13006 19.2499L3.20059 19.3899L5.91194 19.7599L9.98396 20.3299V12.6699H2Z" fill="currentColor"/>
            <path d="M9.99373 11.3202H2.00977V4.83023L9.99373 3.74023V11.3202Z" fill="currentColor"/>
        </g>
    </g>
</svg>
