<svg width="24" height="24" viewBox="0 0 24 24" fill="none"
    xmlns="http://www.w3.org/2000/svg">
    <path fill-rule="evenodd" clip-rule="evenodd" d="M12 22C17.5228 22 22 17.5228 22 12C22 6.47715 17.5228 2 12 2C6.47715 2 2 6.47715 2 12C2 17.5228 6.47715 22 12 22ZM17.4885 6L13.1172 11.0812H13.117L17.8712 18H14.3747L11.1732 13.3409L7.16505 18H6.12915L10.7133 12.6716L6.12915 6H9.62561L12.6571 10.4119L16.4526 6H17.4885ZM11.234 12.066L11.6984 12.7304V12.7306L14.862 17.2557H16.4531L12.5763 11.7103L12.1118 11.046L9.12938 6.77981H7.5383L11.234 12.066Z" fill="currentColor"/>
</svg>
