<svg width="24" height="24" viewBox="0 0 24 24" fill="none"
    xmlns="http://www.w3.org/2000/svg">
    <g id="social/youtube-circle">
        <g id="fill">
            <path d="M10.5719 9.85714L14.2862 12L10.5719 14.1429V9.85714Z" fill="currentColor"/>
            <path fill-rule="evenodd" clip-rule="evenodd" d="M12 22C17.5228 22 22 17.5228 22 12C22 6.47715 17.5228 2 12 2C6.47715 2 2 6.47715 2 12C2 17.5228 6.47715 22 12 22ZM18.8434 8.56429C18.6741 7.95253 18.1927 7.47664 17.5791 7.31429C16.4648 7 12.0005 7 12.0005 7C12.0005 7 7.53623 7 6.42194 7.3C5.80545 7.46623 5.32389 7.94779 5.15766 8.56429C4.95094 9.69769 4.8505 10.8479 4.85766 12C4.8505 13.1521 4.95094 14.3023 5.15766 15.4357C5.32389 16.0522 5.80545 16.5338 6.42194 16.7C7.53623 17 12.0005 17 12.0005 17C12.0005 17 16.4648 17 17.5791 16.7C18.1956 16.5338 18.6771 16.0522 18.8434 15.4357C19.0501 14.3023 19.1505 13.1521 19.1434 12C19.1505 10.8479 19.0501 9.69769 18.8434 8.56429Z" fill="currentColor"/>
        </g>
    </g>
</svg>
