<svg width="36" height="36" viewBox="0 0 36 36" fill="none" xmlns="http://www.w3.org/2000/svg">
<g id="alert">
<path id="fill-background" fill-rule="evenodd" clip-rule="evenodd" d="M18.7757 4.31874L35.2021 32.2437C35.5551 32.8436 35.1225 33.6 34.4264 33.6H1.57355C0.877472 33.6 0.444882 32.8436 0.797805 32.2437L17.2242 4.31874C17.5722 3.72717 18.4277 3.72717 18.7757 4.31874Z" fill="#FFC21A"/>
<path id="fill-foreground" fill-rule="evenodd" clip-rule="evenodd" d="M18 13.875C18.6213 13.875 19.125 14.3787 19.125 15V22.5C19.125 23.1213 18.6213 23.625 18 23.625C17.3787 23.625 16.875 23.1213 16.875 22.5V15C16.875 14.3787 17.3787 13.875 18 13.875ZM18 26.625C18.6213 26.625 19.125 27.1286 19.125 27.75V27.9166C19.125 28.5379 18.6213 29.0416 18 29.0416C17.3787 29.0416 16.875 28.5379 16.875 27.9166V27.75C16.875 27.1286 17.3787 26.625 18 26.625Z" fill="black"/>
</g>
</svg>
