<svg width="36" height="36" viewBox="0 0 36 36" fill="none" xmlns="http://www.w3.org/2000/svg">
<g id="lock">
<path id="fill-background" fill-rule="evenodd" clip-rule="evenodd" d="M22.7238 5.15099C24.0829 6.36849 24.945 8.16829 24.945 10.4558V14.8897H28.1471C28.7684 14.8897 29.2721 15.3934 29.2721 16.0147V31.8971C29.2721 32.5184 28.7684 33.0221 28.1471 33.0221H7.5C6.87868 33.0221 6.375 32.5184 6.375 31.8971V16.0147C6.375 15.3934 6.87868 14.8897 7.5 14.8897H10.875V10.4558C10.875 8.16829 11.7371 6.36849 13.0963 5.151C14.4353 3.95147 16.1904 3.375 17.91 3.375C19.6296 3.375 21.3847 3.95146 22.7238 5.15099ZM13.125 14.8897V10.4558C13.125 8.77281 13.7404 7.5947 14.5975 6.82692C15.4747 6.04118 16.6746 5.625 17.91 5.625C19.1454 5.625 20.3453 6.04117 21.2225 6.82691C22.0796 7.59469 22.695 8.7728 22.695 10.4558V14.8897H13.125Z" fill="black"/>
<path id="fill-foreground" fill-rule="evenodd" clip-rule="evenodd" d="M17.8235 21.2426C18.4449 21.2426 18.9485 21.7463 18.9485 22.3676V25.5441C18.9485 26.1654 18.4449 26.6691 17.8235 26.6691C17.2022 26.6691 16.6985 26.1654 16.6985 25.5441V22.3676C16.6985 21.7463 17.2022 21.2426 17.8235 21.2426Z" fill="white"/>
</g>
</svg>
